<?xml version="1.0" encoding="UTF-8" standalone="no"?>
<!DOCTYPE svg PUBLIC "-//W3C//DTD SVG 1.1//EN"
 "http://www.w3.org/Graphics/SVG/1.1/DTD/svg11.dtd">
<!-- Generated by graphviz version 12.2.0 (20241103.1931)
 -->
<!-- Pages: 1 -->
<svg width="2066pt" height="980pt"
 viewBox="0.00 0.00 2066.00 980.00" xmlns="http://www.w3.org/2000/svg" xmlns:xlink="http://www.w3.org/1999/xlink">
<g id="graph0" class="graph" transform="scale(1 1) rotate(0) translate(4 976)">
<polygon fill="white" stroke="none" points="-4,4 -4,-976 2062,-976 2062,4 -4,4"/>
<!-- broadcaster -->
<g id="node1" class="node">
<title>broadcaster</title>
<ellipse fill="none" stroke="black" cx="1029" cy="-954" rx="55.54" ry="18"/>
<text text-anchor="middle" x="1029" y="-949.8" font-family="Times,serif" font-size="14.00">broadcaster</text>
</g>
<!-- nd -->
<g id="node2" class="node">
<title>nd</title>
<ellipse fill="none" stroke="black" cx="299" cy="-882" rx="27" ry="18"/>
<text text-anchor="middle" x="299" y="-877.8" font-family="Times,serif" font-size="14.00">nd</text>
</g>
<!-- broadcaster&#45;&gt;nd -->
<g id="edge1" class="edge">
<title>broadcaster&#45;&gt;nd</title>
<path fill="none" stroke="black" d="M976.21,-947.94C836.27,-934.52 458.27,-898.27 337,-886.64"/>
<polygon fill="black" stroke="black" points="337.55,-883.18 327.27,-885.71 336.89,-890.15 337.55,-883.18"/>
</g>
<!-- fx -->
<g id="node3" class="node">
<title>fx</title>
<ellipse fill="none" stroke="black" cx="767" cy="-882" rx="27" ry="18"/>
<text text-anchor="middle" x="767" y="-877.8" font-family="Times,serif" font-size="14.00">fx</text>
</g>
<!-- broadcaster&#45;&gt;fx -->
<g id="edge2" class="edge">
<title>broadcaster&#45;&gt;fx</title>
<path fill="none" stroke="black" d="M987.2,-941.83C936.21,-928.21 850.9,-905.42 802.8,-892.57"/>
<polygon fill="black" stroke="black" points="803.73,-889.19 793.17,-889.99 801.92,-895.95 803.73,-889.19"/>
</g>
<!-- mc -->
<g id="node4" class="node">
<title>mc</title>
<ellipse fill="none" stroke="black" cx="1291" cy="-882" rx="27" ry="18"/>
<text text-anchor="middle" x="1291" y="-877.8" font-family="Times,serif" font-size="14.00">mc</text>
</g>
<!-- broadcaster&#45;&gt;mc -->
<g id="edge3" class="edge">
<title>broadcaster&#45;&gt;mc</title>
<path fill="none" stroke="black" d="M1070.8,-941.83C1121.79,-928.21 1207.1,-905.42 1255.2,-892.57"/>
<polygon fill="black" stroke="black" points="1256.08,-895.95 1264.83,-889.99 1254.27,-889.19 1256.08,-895.95"/>
</g>
<!-- lf -->
<g id="node5" class="node">
<title>lf</title>
<ellipse fill="none" stroke="black" cx="1783" cy="-882" rx="27" ry="18"/>
<text text-anchor="middle" x="1783" y="-877.8" font-family="Times,serif" font-size="14.00">lf</text>
</g>
<!-- broadcaster&#45;&gt;lf -->
<g id="edge4" class="edge">
<title>broadcaster&#45;&gt;lf</title>
<path fill="none" stroke="black" d="M1082.02,-948.08C1225.88,-934.72 1621.06,-898.03 1745.18,-886.51"/>
<polygon fill="black" stroke="black" points="1745.19,-890.03 1754.82,-885.62 1744.54,-883.06 1745.19,-890.03"/>
</g>
<!-- lg -->
<g id="node7" class="node">
<title>lg</title>
<ellipse fill="none" stroke="black" cx="247" cy="-810" rx="27" ry="18"/>
<text text-anchor="middle" x="247" y="-805.8" font-family="Times,serif" font-size="14.00">lg</text>
</g>
<!-- nd&#45;&gt;lg -->
<g id="edge15" class="edge">
<title>nd&#45;&gt;lg</title>
<path fill="none" stroke="black" d="M283.22,-867.17C275.69,-858.6 266.95,-847.3 259.83,-837.1"/>
<polygon fill="black" stroke="black" points="262.9,-835.39 254.44,-829.02 257.08,-839.28 262.9,-835.39"/>
</g>
<!-- tc -->
<g id="node20" class="node">
<title>tc</title>
<ellipse fill="none" stroke="black" cx="397" cy="-738" rx="27" ry="18"/>
<text text-anchor="middle" x="397" y="-733.8" font-family="Times,serif" font-size="14.00">tc</text>
</g>
<!-- nd&#45;&gt;tc -->
<g id="edge16" class="edge">
<title>nd&#45;&gt;tc</title>
<path fill="none" stroke="black" d="M309.86,-865.26C326.79,-840.74 359.6,-793.2 379.77,-763.96"/>
<polygon fill="black" stroke="black" points="382.43,-766.27 385.23,-756.06 376.67,-762.3 382.43,-766.27"/>
</g>
<!-- st -->
<g id="node12" class="node">
<title>st</title>
<ellipse fill="none" stroke="black" cx="767" cy="-810" rx="27" ry="18"/>
<text text-anchor="middle" x="767" y="-805.8" font-family="Times,serif" font-size="14.00">st</text>
</g>
<!-- fx&#45;&gt;st -->
<g id="edge13" class="edge">
<title>fx&#45;&gt;st</title>
<path fill="none" stroke="black" d="M761.12,-864.05C760.33,-856.57 760.08,-847.58 760.37,-839.14"/>
<polygon fill="black" stroke="black" points="763.85,-839.51 761.04,-829.3 756.87,-839.04 763.85,-839.51"/>
</g>
<!-- lx -->
<g id="node17" class="node">
<title>lx</title>
<ellipse fill="none" stroke="black" cx="617" cy="-738" rx="27" ry="18"/>
<text text-anchor="middle" x="617" y="-733.8" font-family="Times,serif" font-size="14.00">lx</text>
</g>
<!-- fx&#45;&gt;lx -->
<g id="edge12" class="edge">
<title>fx&#45;&gt;lx</title>
<path fill="none" stroke="black" d="M751.79,-866.6C725.38,-841.6 670.88,-790.01 639.88,-760.66"/>
<polygon fill="black" stroke="black" points="642.57,-758.39 632.9,-754.05 637.76,-763.47 642.57,-758.39"/>
</g>
<!-- gr -->
<g id="node9" class="node">
<title>gr</title>
<ellipse fill="none" stroke="black" cx="1291" cy="-810" rx="27" ry="18"/>
<text text-anchor="middle" x="1291" y="-805.8" font-family="Times,serif" font-size="14.00">gr</text>
</g>
<!-- mc&#45;&gt;gr -->
<g id="edge63" class="edge">
<title>mc&#45;&gt;gr</title>
<path fill="none" stroke="black" d="M1285.12,-864.05C1284.33,-856.57 1284.08,-847.58 1284.37,-839.14"/>
<polygon fill="black" stroke="black" points="1287.85,-839.51 1285.04,-829.3 1280.87,-839.04 1287.85,-839.51"/>
</g>
<!-- cz -->
<g id="node46" class="node">
<title>cz</title>
<ellipse fill="none" stroke="black" cx="1479" cy="-738" rx="27" ry="18"/>
<text text-anchor="middle" x="1479" y="-733.8" font-family="Times,serif" font-size="14.00">cz</text>
</g>
<!-- mc&#45;&gt;cz -->
<g id="edge64" class="edge">
<title>mc&#45;&gt;cz</title>
<path fill="none" stroke="black" d="M1308.35,-867.9C1341.37,-842.96 1413.42,-788.53 1452.51,-759.01"/>
<polygon fill="black" stroke="black" points="1454.61,-761.81 1460.48,-752.99 1450.4,-756.22 1454.61,-761.81"/>
</g>
<!-- bn -->
<g id="node16" class="node">
<title>bn</title>
<ellipse fill="none" stroke="black" cx="1811" cy="-810" rx="27" ry="18"/>
<text text-anchor="middle" x="1811" y="-805.8" font-family="Times,serif" font-size="14.00">bn</text>
</g>
<!-- lf&#45;&gt;bn -->
<g id="edge46" class="edge">
<title>lf&#45;&gt;bn</title>
<path fill="none" stroke="black" d="M1784.01,-863.7C1786.46,-855.43 1790.28,-845.38 1794.37,-836.28"/>
<polygon fill="black" stroke="black" points="1797.39,-838.09 1798.58,-827.57 1791.08,-835.05 1797.39,-838.09"/>
</g>
<!-- qg -->
<g id="node41" class="node">
<title>qg</title>
<ellipse fill="none" stroke="black" cx="1737" cy="-738" rx="27" ry="18"/>
<text text-anchor="middle" x="1737" y="-733.8" font-family="Times,serif" font-size="14.00">qg</text>
</g>
<!-- lf&#45;&gt;qg -->
<g id="edge47" class="edge">
<title>lf&#45;&gt;qg</title>
<path fill="none" stroke="black" d="M1777.54,-864.15C1769.73,-840.03 1755.26,-795.36 1745.89,-766.43"/>
<polygon fill="black" stroke="black" points="1749.33,-765.7 1742.92,-757.26 1742.67,-767.86 1749.33,-765.7"/>
</g>
<!-- hm -->
<g id="node6" class="node">
<title>hm</title>
<ellipse fill="none" stroke="black" cx="235" cy="-18" rx="27" ry="18"/>
<text text-anchor="middle" x="235" y="-13.8" font-family="Times,serif" font-size="14.00">hm</text>
</g>
<!-- hm&#45;&gt;lg -->
<g id="edge5" class="edge">
<title>hm&#45;&gt;lg</title>
<path fill="none" stroke="black" d="M257.03,-28.68C296.69,-47.77 376,-94.3 376,-161 376,-595 376,-595 376,-595 376,-673.75 354.41,-697.22 302,-756 292.31,-766.87 280.81,-778.17 270.84,-787.53"/>
<polygon fill="black" stroke="black" points="268.63,-784.8 263.66,-794.16 273.38,-789.94 268.63,-784.8"/>
</g>
<!-- lg&#45;&gt;nd -->
<g id="edge105" class="edge">
<title>lg&#45;&gt;nd</title>
<path fill="none" stroke="black" d="M262.62,-824.65C270.21,-833.27 279.05,-844.7 286.23,-855"/>
<polygon fill="black" stroke="black" points="283.21,-856.78 291.68,-863.15 289.03,-852.89 283.21,-856.78"/>
</g>
<!-- dn -->
<g id="node18" class="node">
<title>dn</title>
<ellipse fill="none" stroke="black" cx="93" cy="-234" rx="27" ry="18"/>
<text text-anchor="middle" x="93" y="-229.8" font-family="Times,serif" font-size="14.00">dn</text>
</g>
<!-- lg&#45;&gt;dn -->
<g id="edge108" class="edge">
<title>lg&#45;&gt;dn</title>
<path fill="none" stroke="black" d="M221.94,-802.6C196.2,-795 156.16,-780.21 129,-756 94.63,-725.37 76,-713.04 76,-667 76,-667 76,-667 76,-377 76,-337.24 82.65,-291.67 87.63,-263.1"/>
<polygon fill="black" stroke="black" points="91.04,-263.92 89.37,-253.46 84.15,-262.68 91.04,-263.92"/>
</g>
<!-- lg&#45;&gt;tc -->
<g id="edge104" class="edge">
<title>lg&#45;&gt;tc</title>
<path fill="none" stroke="black" d="M268.81,-798.82C294.03,-787.05 335.77,-767.57 364.75,-754.05"/>
<polygon fill="black" stroke="black" points="366.21,-757.23 373.79,-749.83 363.25,-750.89 366.21,-757.23"/>
</g>
<!-- gq -->
<g id="node28" class="node">
<title>gq</title>
<ellipse fill="none" stroke="black" cx="169" cy="-378" rx="27" ry="18"/>
<text text-anchor="middle" x="169" y="-373.8" font-family="Times,serif" font-size="14.00">gq</text>
</g>
<!-- lg&#45;&gt;gq -->
<g id="edge102" class="edge">
<title>lg&#45;&gt;gq</title>
<path fill="none" stroke="black" d="M230.02,-795.7C202.69,-772.67 152,-722.47 152,-667 152,-667 152,-667 152,-521 152,-481.24 158.65,-435.67 163.63,-407.1"/>
<polygon fill="black" stroke="black" points="167.04,-407.92 165.37,-397.46 160.15,-406.68 167.04,-407.92"/>
</g>
<!-- bz -->
<g id="node37" class="node">
<title>bz</title>
<ellipse fill="none" stroke="black" cx="283" cy="-594" rx="27" ry="18"/>
<text text-anchor="middle" x="283" y="-589.8" font-family="Times,serif" font-size="14.00">bz</text>
</g>
<!-- lg&#45;&gt;bz -->
<g id="edge103" class="edge">
<title>lg&#45;&gt;bz</title>
<path fill="none" stroke="black" d="M249.89,-791.85C256.06,-755.14 270.61,-668.66 278.2,-623.53"/>
<polygon fill="black" stroke="black" points="281.64,-624.17 279.85,-613.73 274.74,-623.01 281.64,-624.17"/>
</g>
<!-- kc -->
<g id="node44" class="node">
<title>kc</title>
<ellipse fill="none" stroke="black" cx="207" cy="-450" rx="27" ry="18"/>
<text text-anchor="middle" x="207" y="-445.8" font-family="Times,serif" font-size="14.00">kc</text>
</g>
<!-- lg&#45;&gt;kc -->
<g id="edge107" class="edge">
<title>lg&#45;&gt;kc</title>
<path fill="none" stroke="black" d="M236.01,-793.22C219.45,-767.85 190,-715.88 190,-667 190,-667 190,-667 190,-593 190,-553.24 196.65,-507.67 201.63,-479.1"/>
<polygon fill="black" stroke="black" points="205.04,-479.92 203.37,-469.46 198.15,-478.68 205.04,-479.92"/>
</g>
<!-- rr -->
<g id="node59" class="node">
<title>rr</title>
<ellipse fill="none" stroke="black" cx="507" cy="-738" rx="27" ry="18"/>
<text text-anchor="middle" x="507" y="-733.8" font-family="Times,serif" font-size="14.00">rr</text>
</g>
<!-- lg&#45;&gt;rr -->
<g id="edge106" class="edge">
<title>lg&#45;&gt;rr</title>
<path fill="none" stroke="black" d="M271.93,-802.29C318.23,-789.82 417.64,-763.06 471.15,-748.65"/>
<polygon fill="black" stroke="black" points="471.94,-752.06 480.68,-746.09 470.12,-745.31 471.94,-752.06"/>
</g>
<!-- ph -->
<g id="node8" class="node">
<title>ph</title>
<ellipse fill="none" stroke="black" cx="1327" cy="-450" rx="27" ry="18"/>
<text text-anchor="middle" x="1327" y="-445.8" font-family="Times,serif" font-size="14.00">ph</text>
</g>
<!-- ph&#45;&gt;gr -->
<g id="edge6" class="edge">
<title>ph&#45;&gt;gr</title>
<path fill="none" stroke="black" d="M1323.64,-467.97C1318.69,-494.52 1310,-547.56 1310,-593 1310,-667 1310,-667 1310,-667 1310,-706.83 1302.57,-752.39 1297,-780.93"/>
<polygon fill="black" stroke="black" points="1293.6,-780.07 1295.05,-790.57 1300.46,-781.46 1293.6,-780.07"/>
</g>
<!-- cd -->
<g id="node10" class="node">
<title>cd</title>
<ellipse fill="none" stroke="black" cx="1289" cy="-378" rx="27" ry="18"/>
<text text-anchor="middle" x="1289" y="-373.8" font-family="Times,serif" font-size="14.00">cd</text>
</g>
<!-- ph&#45;&gt;cd -->
<g id="edge7" class="edge">
<title>ph&#45;&gt;cd</title>
<path fill="none" stroke="black" d="M1318.19,-432.76C1313.73,-424.55 1308.2,-414.37 1303.16,-405.09"/>
<polygon fill="black" stroke="black" points="1306.33,-403.6 1298.49,-396.48 1300.18,-406.94 1306.33,-403.6"/>
</g>
<!-- gr&#45;&gt;mc -->
<g id="edge57" class="edge">
<title>gr&#45;&gt;mc</title>
<path fill="none" stroke="black" d="M1296.86,-827.79C1297.66,-835.25 1297.92,-844.24 1297.64,-852.69"/>
<polygon fill="black" stroke="black" points="1294.16,-852.33 1296.98,-862.54 1301.14,-852.8 1294.16,-852.33"/>
</g>
<!-- gr&#45;&gt;cd -->
<g id="edge61" class="edge">
<title>gr&#45;&gt;cd</title>
<path fill="none" stroke="black" d="M1287.25,-792.05C1281.71,-765.52 1272,-712.52 1272,-667 1272,-667 1272,-667 1272,-521 1272,-481.24 1278.65,-435.67 1283.63,-407.1"/>
<polygon fill="black" stroke="black" points="1287.04,-407.92 1285.37,-397.46 1280.15,-406.68 1287.04,-407.92"/>
</g>
<!-- js -->
<g id="node40" class="node">
<title>js</title>
<ellipse fill="none" stroke="black" cx="1103" cy="-738" rx="27" ry="18"/>
<text text-anchor="middle" x="1103" y="-733.8" font-family="Times,serif" font-size="14.00">js</text>
</g>
<!-- gr&#45;&gt;js -->
<g id="edge59" class="edge">
<title>gr&#45;&gt;js</title>
<path fill="none" stroke="black" d="M1267.19,-800.8C1238.02,-790.67 1187.13,-772.71 1144,-756 1141.36,-754.98 1138.63,-753.9 1135.9,-752.8"/>
<polygon fill="black" stroke="black" points="1137.46,-749.66 1126.88,-749.12 1134.82,-756.14 1137.46,-749.66"/>
</g>
<!-- qc -->
<g id="node43" class="node">
<title>qc</title>
<ellipse fill="none" stroke="black" cx="1213" cy="-234" rx="27" ry="18"/>
<text text-anchor="middle" x="1213" y="-229.8" font-family="Times,serif" font-size="14.00">qc</text>
</g>
<!-- gr&#45;&gt;qc -->
<g id="edge58" class="edge">
<title>gr&#45;&gt;qc</title>
<path fill="none" stroke="black" d="M1274.02,-795.7C1246.69,-772.67 1196,-722.47 1196,-667 1196,-667 1196,-667 1196,-377 1196,-337.24 1202.65,-291.67 1207.63,-263.1"/>
<polygon fill="black" stroke="black" points="1211.04,-263.92 1209.37,-253.46 1204.15,-262.68 1211.04,-263.92"/>
</g>
<!-- gr&#45;&gt;cz -->
<g id="edge55" class="edge">
<title>gr&#45;&gt;cz</title>
<path fill="none" stroke="black" d="M1314.81,-800.8C1343.98,-790.67 1394.87,-772.71 1438,-756 1440.64,-754.98 1443.37,-753.9 1446.1,-752.8"/>
<polygon fill="black" stroke="black" points="1447.18,-756.14 1455.12,-749.12 1444.54,-749.66 1447.18,-756.14"/>
</g>
<!-- dh -->
<g id="node47" class="node">
<title>dh</title>
<ellipse fill="none" stroke="black" cx="1441" cy="-666" rx="27" ry="18"/>
<text text-anchor="middle" x="1441" y="-661.8" font-family="Times,serif" font-size="14.00">dh</text>
</g>
<!-- gr&#45;&gt;dh -->
<g id="edge56" class="edge">
<title>gr&#45;&gt;dh</title>
<path fill="none" stroke="black" d="M1315.55,-802.38C1339.75,-794.74 1376.44,-780.05 1400,-756 1416.64,-739.01 1427.33,-714.04 1433.61,-694.87"/>
<polygon fill="black" stroke="black" points="1436.89,-696.11 1436.45,-685.53 1430.19,-694.08 1436.89,-696.11"/>
</g>
<!-- nj -->
<g id="node48" class="node">
<title>nj</title>
<ellipse fill="none" stroke="black" cx="1403" cy="-594" rx="27" ry="18"/>
<text text-anchor="middle" x="1403" y="-589.8" font-family="Times,serif" font-size="14.00">nj</text>
</g>
<!-- gr&#45;&gt;nj -->
<g id="edge60" class="edge">
<title>gr&#45;&gt;nj</title>
<path fill="none" stroke="black" d="M1312.15,-798.39C1328.18,-789.28 1349.52,-774.67 1362,-756 1389.28,-715.21 1398.41,-657.54 1401.46,-623.44"/>
<polygon fill="black" stroke="black" points="1404.95,-623.76 1402.22,-613.52 1397.97,-623.22 1404.95,-623.76"/>
</g>
<!-- vr -->
<g id="node42" class="node">
<title>vr</title>
<ellipse fill="none" stroke="black" cx="1251" cy="-306" rx="27" ry="18"/>
<text text-anchor="middle" x="1251" y="-301.8" font-family="Times,serif" font-size="14.00">vr</text>
</g>
<!-- cd&#45;&gt;vr -->
<g id="edge48" class="edge">
<title>cd&#45;&gt;vr</title>
<path fill="none" stroke="black" d="M1280.19,-360.76C1275.73,-352.55 1270.2,-342.37 1265.16,-333.09"/>
<polygon fill="black" stroke="black" points="1268.33,-331.6 1260.49,-324.48 1262.18,-334.94 1268.33,-331.6"/>
</g>
<!-- xs -->
<g id="node11" class="node">
<title>xs</title>
<ellipse fill="none" stroke="black" cx="694" cy="-306" rx="27" ry="18"/>
<text text-anchor="middle" x="694" y="-301.8" font-family="Times,serif" font-size="14.00">xs</text>
</g>
<!-- xs&#45;&gt;st -->
<g id="edge8" class="edge">
<title>xs&#45;&gt;st</title>
<path fill="none" stroke="black" d="M718.07,-314.66C764.52,-331.12 862,-374.53 862,-449 862,-667 862,-667 862,-667 862,-717.05 820.73,-762.81 792.59,-788.2"/>
<polygon fill="black" stroke="black" points="790.36,-785.5 785.12,-794.71 794.96,-790.77 790.36,-785.5"/>
</g>
<!-- zf -->
<g id="node13" class="node">
<title>zf</title>
<ellipse fill="none" stroke="black" cx="628" cy="-234" rx="27" ry="18"/>
<text text-anchor="middle" x="628" y="-229.8" font-family="Times,serif" font-size="14.00">zf</text>
</g>
<!-- xs&#45;&gt;zf -->
<g id="edge9" class="edge">
<title>xs&#45;&gt;zf</title>
<path fill="none" stroke="black" d="M680,-290.15C671.25,-280.87 659.8,-268.73 649.87,-258.19"/>
<polygon fill="black" stroke="black" points="652.42,-255.8 643.02,-250.93 647.33,-260.6 652.42,-255.8"/>
</g>
<!-- st&#45;&gt;fx -->
<g id="edge30" class="edge">
<title>st&#45;&gt;fx</title>
<path fill="none" stroke="black" d="M772.86,-827.79C773.66,-835.25 773.92,-844.24 773.64,-852.69"/>
<polygon fill="black" stroke="black" points="770.16,-852.33 772.98,-862.54 777.14,-852.8 770.16,-852.33"/>
</g>
<!-- st&#45;&gt;lx -->
<g id="edge32" class="edge">
<title>st&#45;&gt;lx</title>
<path fill="none" stroke="black" d="M745.19,-798.82C719.97,-787.05 678.23,-767.57 649.25,-754.05"/>
<polygon fill="black" stroke="black" points="650.75,-750.89 640.21,-749.83 647.79,-757.23 650.75,-750.89"/>
</g>
<!-- kk -->
<g id="node27" class="node">
<title>kk</title>
<ellipse fill="none" stroke="black" cx="694" cy="-378" rx="27" ry="18"/>
<text text-anchor="middle" x="694" y="-373.8" font-family="Times,serif" font-size="14.00">kk</text>
</g>
<!-- st&#45;&gt;kk -->
<g id="edge29" class="edge">
<title>st&#45;&gt;kk</title>
<path fill="none" stroke="black" d="M751.79,-795.12C740.67,-784.71 725.41,-769.93 713,-756 660.48,-697.07 638,-673.94 638,-595 638,-595 638,-595 638,-521 638,-477.76 660.75,-431.96 677.25,-404.42"/>
<polygon fill="black" stroke="black" points="680.11,-406.44 682.41,-396.09 674.16,-402.75 680.11,-406.44"/>
</g>
<!-- hz -->
<g id="node31" class="node">
<title>hz</title>
<ellipse fill="none" stroke="black" cx="731" cy="-594" rx="27" ry="18"/>
<text text-anchor="middle" x="731" y="-589.8" font-family="Times,serif" font-size="14.00">hz</text>
</g>
<!-- st&#45;&gt;hz -->
<g id="edge31" class="edge">
<title>st&#45;&gt;hz</title>
<path fill="none" stroke="black" d="M764.11,-791.85C757.94,-755.14 743.39,-668.66 735.8,-623.53"/>
<polygon fill="black" stroke="black" points="739.26,-623.01 734.15,-613.73 732.36,-624.17 739.26,-623.01"/>
</g>
<!-- zb -->
<g id="node32" class="node">
<title>zb</title>
<ellipse fill="none" stroke="black" cx="1031" cy="-738" rx="27" ry="18"/>
<text text-anchor="middle" x="1031" y="-733.8" font-family="Times,serif" font-size="14.00">zb</text>
</g>
<!-- st&#45;&gt;zb -->
<g id="edge33" class="edge">
<title>st&#45;&gt;zb</title>
<path fill="none" stroke="black" d="M791.84,-802.41C838.81,-789.96 940.82,-762.91 995.2,-748.49"/>
<polygon fill="black" stroke="black" points="995.81,-751.95 1004.57,-746.01 994.01,-745.19 995.81,-751.95"/>
</g>
<!-- zf&#45;&gt;st -->
<g id="edge99" class="edge">
<title>zf&#45;&gt;st</title>
<path fill="none" stroke="black" d="M615.59,-250.1C596.47,-274.95 562,-326.71 562,-377 562,-667 562,-667 562,-667 562,-707.45 553.38,-726.45 581,-756 619.15,-796.8 686.26,-806.96 728.59,-809.06"/>
<polygon fill="black" stroke="black" points="728.19,-812.55 738.31,-809.41 728.44,-805.56 728.19,-812.55"/>
</g>
<!-- xq -->
<g id="node29" class="node">
<title>xq</title>
<ellipse fill="none" stroke="black" cx="628" cy="-162" rx="27" ry="18"/>
<text text-anchor="middle" x="628" y="-157.8" font-family="Times,serif" font-size="14.00">xq</text>
</g>
<!-- zf&#45;&gt;xq -->
<g id="edge98" class="edge">
<title>zf&#45;&gt;xq</title>
<path fill="none" stroke="black" d="M628,-215.7C628,-208.41 628,-199.73 628,-191.54"/>
<polygon fill="black" stroke="black" points="631.5,-191.62 628,-181.62 624.5,-191.62 631.5,-191.62"/>
</g>
<!-- xc -->
<g id="node14" class="node">
<title>xc</title>
<ellipse fill="none" stroke="black" cx="1927" cy="-234" rx="27" ry="18"/>
<text text-anchor="middle" x="1927" y="-229.8" font-family="Times,serif" font-size="14.00">xc</text>
</g>
<!-- vv -->
<g id="node15" class="node">
<title>vv</title>
<ellipse fill="none" stroke="black" cx="1965" cy="-162" rx="27" ry="18"/>
<text text-anchor="middle" x="1965" y="-157.8" font-family="Times,serif" font-size="14.00">vv</text>
</g>
<!-- xc&#45;&gt;vv -->
<g id="edge10" class="edge">
<title>xc&#45;&gt;vv</title>
<path fill="none" stroke="black" d="M1935.81,-216.76C1940.27,-208.55 1945.8,-198.37 1950.84,-189.09"/>
<polygon fill="black" stroke="black" points="1953.82,-190.94 1955.51,-180.48 1947.67,-187.6 1953.82,-190.94"/>
</g>
<!-- xc&#45;&gt;bn -->
<g id="edge11" class="edge">
<title>xc&#45;&gt;bn</title>
<path fill="none" stroke="black" d="M1930.36,-251.97C1935.31,-278.52 1944,-331.56 1944,-377 1944,-667 1944,-667 1944,-667 1944,-726.22 1881.61,-770.93 1842.3,-793.23"/>
<polygon fill="black" stroke="black" points="1840.79,-790.06 1833.7,-797.94 1844.15,-796.2 1840.79,-790.06"/>
</g>
<!-- vv&#45;&gt;bn -->
<g id="edge42" class="edge">
<title>vv&#45;&gt;bn</title>
<path fill="none" stroke="black" d="M1968.36,-179.97C1973.31,-206.52 1982,-259.56 1982,-305 1982,-667 1982,-667 1982,-667 1982,-737.14 1895.8,-779.26 1845.81,-797.79"/>
<polygon fill="black" stroke="black" points="1844.81,-794.43 1836.56,-801.09 1847.16,-801.03 1844.81,-794.43"/>
</g>
<!-- hh -->
<g id="node39" class="node">
<title>hh</title>
<ellipse fill="none" stroke="black" cx="2003" cy="-90" rx="27" ry="18"/>
<text text-anchor="middle" x="2003" y="-85.8" font-family="Times,serif" font-size="14.00">hh</text>
</g>
<!-- vv&#45;&gt;hh -->
<g id="edge41" class="edge">
<title>vv&#45;&gt;hh</title>
<path fill="none" stroke="black" d="M1973.81,-144.76C1978.27,-136.55 1983.8,-126.37 1988.84,-117.09"/>
<polygon fill="black" stroke="black" points="1991.82,-118.94 1993.51,-108.48 1985.67,-115.6 1991.82,-118.94"/>
</g>
<!-- bn&#45;&gt;lf -->
<g id="edge79" class="edge">
<title>bn&#45;&gt;lf</title>
<path fill="none" stroke="black" d="M1809.95,-828.46C1807.54,-836.54 1803.84,-846.3 1799.86,-855.2"/>
<polygon fill="black" stroke="black" points="1796.76,-853.57 1795.59,-864.1 1803.07,-856.6 1796.76,-853.57"/>
</g>
<!-- tl -->
<g id="node25" class="node">
<title>tl</title>
<ellipse fill="none" stroke="black" cx="1813" cy="-378" rx="27" ry="18"/>
<text text-anchor="middle" x="1813" y="-373.8" font-family="Times,serif" font-size="14.00">tl</text>
</g>
<!-- bn&#45;&gt;tl -->
<g id="edge82" class="edge">
<title>bn&#45;&gt;tl</title>
<path fill="none" stroke="black" d="M1785.23,-803.99C1757.35,-797.37 1713.15,-783.22 1685,-756 1653.69,-725.73 1644,-710.55 1644,-667 1644,-667 1644,-667 1644,-521 1644,-451.53 1728.75,-409.24 1778.22,-390.47"/>
<polygon fill="black" stroke="black" points="1779.17,-393.85 1787.36,-387.14 1776.77,-387.28 1779.17,-393.85"/>
</g>
<!-- bn&#45;&gt;qg -->
<g id="edge76" class="edge">
<title>bn&#45;&gt;qg</title>
<path fill="none" stroke="black" d="M1796.02,-794.83C1785.76,-785.13 1771.94,-772.06 1760.26,-761"/>
<polygon fill="black" stroke="black" points="1762.98,-758.75 1753.31,-754.42 1758.17,-763.84 1762.98,-758.75"/>
</g>
<!-- hq -->
<g id="node49" class="node">
<title>hq</title>
<ellipse fill="none" stroke="black" cx="1775" cy="-666" rx="27" ry="18"/>
<text text-anchor="middle" x="1775" y="-661.8" font-family="Times,serif" font-size="14.00">hq</text>
</g>
<!-- bn&#45;&gt;hq -->
<g id="edge77" class="edge">
<title>bn&#45;&gt;hq</title>
<path fill="none" stroke="black" d="M1806.66,-791.87C1800.58,-767.88 1789.45,-723.99 1782.14,-695.16"/>
<polygon fill="black" stroke="black" points="1785.58,-694.49 1779.73,-685.66 1778.79,-696.21 1785.58,-694.49"/>
</g>
<!-- vj -->
<g id="node55" class="node">
<title>vj</title>
<ellipse fill="none" stroke="black" cx="1794" cy="-594" rx="27" ry="18"/>
<text text-anchor="middle" x="1794" y="-589.8" font-family="Times,serif" font-size="14.00">vj</text>
</g>
<!-- bn&#45;&gt;vj -->
<g id="edge81" class="edge">
<title>bn&#45;&gt;vj</title>
<path fill="none" stroke="black" d="M1812.72,-791.95C1815.32,-762.41 1819.12,-699.92 1811,-648 1809.68,-639.56 1807.25,-630.64 1804.62,-622.56"/>
<polygon fill="black" stroke="black" points="1807.99,-621.58 1801.39,-613.29 1801.38,-623.88 1807.99,-621.58"/>
</g>
<!-- rs -->
<g id="node56" class="node">
<title>rs</title>
<ellipse fill="none" stroke="black" cx="1794" cy="-522" rx="27" ry="18"/>
<text text-anchor="middle" x="1794" y="-517.8" font-family="Times,serif" font-size="14.00">rs</text>
</g>
<!-- bn&#45;&gt;rs -->
<g id="edge78" class="edge">
<title>bn&#45;&gt;rs</title>
<path fill="none" stroke="black" d="M1784.79,-804.57C1758.47,-798.58 1719.27,-785.08 1701,-756 1656.35,-684.92 1731.63,-588.81 1771.58,-545.64"/>
<polygon fill="black" stroke="black" points="1773.91,-548.27 1778.24,-538.6 1768.83,-543.46 1773.91,-548.27"/>
</g>
<!-- bs -->
<g id="node57" class="node">
<title>bs</title>
<ellipse fill="none" stroke="black" cx="1551" cy="-738" rx="27" ry="18"/>
<text text-anchor="middle" x="1551" y="-733.8" font-family="Times,serif" font-size="14.00">bs</text>
</g>
<!-- bn&#45;&gt;bs -->
<g id="edge80" class="edge">
<title>bn&#45;&gt;bs</title>
<path fill="none" stroke="black" d="M1786.07,-802.29C1739.77,-789.82 1640.36,-763.06 1586.85,-748.65"/>
<polygon fill="black" stroke="black" points="1587.88,-745.31 1577.32,-746.09 1586.06,-752.06 1587.88,-745.31"/>
</g>
<!-- gp -->
<g id="node23" class="node">
<title>gp</title>
<ellipse fill="none" stroke="black" cx="693" cy="-666" rx="27" ry="18"/>
<text text-anchor="middle" x="693" y="-661.8" font-family="Times,serif" font-size="14.00">gp</text>
</g>
<!-- lx&#45;&gt;gp -->
<g id="edge20" class="edge">
<title>lx&#45;&gt;gp</title>
<path fill="none" stroke="black" d="M632.38,-722.83C642.99,-713.06 657.3,-699.88 669.35,-688.78"/>
<polygon fill="black" stroke="black" points="671.55,-691.52 676.53,-682.17 666.8,-686.37 671.55,-691.52"/>
</g>
<!-- zc -->
<g id="node19" class="node">
<title>zc</title>
<ellipse fill="none" stroke="black" cx="74" cy="-162" rx="27" ry="18"/>
<text text-anchor="middle" x="74" y="-157.8" font-family="Times,serif" font-size="14.00">zc</text>
</g>
<!-- dn&#45;&gt;zc -->
<g id="edge14" class="edge">
<title>dn&#45;&gt;zc</title>
<path fill="none" stroke="black" d="M88.4,-216.05C86.35,-208.49 83.87,-199.37 81.56,-190.85"/>
<polygon fill="black" stroke="black" points="84.95,-189.98 78.95,-181.25 78.2,-191.82 84.95,-189.98"/>
</g>
<!-- zc&#45;&gt;lg -->
<g id="edge70" class="edge">
<title>zc&#45;&gt;lg</title>
<path fill="none" stroke="black" d="M66.89,-179.7C56.4,-205.89 38,-258.46 38,-305 38,-667 38,-667 38,-667 38,-712.37 53.02,-727.11 88,-756 122.97,-784.88 174.31,-798.24 209.11,-804.27"/>
<polygon fill="black" stroke="black" points="208.31,-807.69 218.74,-805.81 209.41,-800.78 208.31,-807.69"/>
</g>
<!-- qn -->
<g id="node54" class="node">
<title>qn</title>
<ellipse fill="none" stroke="black" cx="74" cy="-90" rx="27" ry="18"/>
<text text-anchor="middle" x="74" y="-85.8" font-family="Times,serif" font-size="14.00">qn</text>
</g>
<!-- zc&#45;&gt;qn -->
<g id="edge71" class="edge">
<title>zc&#45;&gt;qn</title>
<path fill="none" stroke="black" d="M74,-143.7C74,-136.41 74,-127.73 74,-119.54"/>
<polygon fill="black" stroke="black" points="77.5,-119.62 74,-109.62 70.5,-119.62 77.5,-119.62"/>
</g>
<!-- kj -->
<g id="node24" class="node">
<title>kj</title>
<ellipse fill="none" stroke="black" cx="321" cy="-666" rx="27" ry="18"/>
<text text-anchor="middle" x="321" y="-661.8" font-family="Times,serif" font-size="14.00">kj</text>
</g>
<!-- tc&#45;&gt;kj -->
<g id="edge21" class="edge">
<title>tc&#45;&gt;kj</title>
<path fill="none" stroke="black" d="M381.62,-722.83C371.01,-713.06 356.7,-699.88 344.65,-688.78"/>
<polygon fill="black" stroke="black" points="347.2,-686.37 337.47,-682.17 342.45,-691.52 347.2,-686.37"/>
</g>
<!-- pd -->
<g id="node21" class="node">
<title>pd</title>
<ellipse fill="none" stroke="black" cx="131" cy="-306" rx="27" ry="18"/>
<text text-anchor="middle" x="131" y="-301.8" font-family="Times,serif" font-size="14.00">pd</text>
</g>
<!-- pd&#45;&gt;lg -->
<g id="edge18" class="edge">
<title>pd&#45;&gt;lg</title>
<path fill="none" stroke="black" d="M127.64,-323.97C122.69,-350.52 114,-403.56 114,-449 114,-667 114,-667 114,-667 114,-726.22 176.39,-770.93 215.7,-793.23"/>
<polygon fill="black" stroke="black" points="213.85,-796.2 224.3,-797.94 217.21,-790.06 213.85,-796.2"/>
</g>
<!-- pd&#45;&gt;dn -->
<g id="edge17" class="edge">
<title>pd&#45;&gt;dn</title>
<path fill="none" stroke="black" d="M122.19,-288.76C117.73,-280.55 112.2,-270.37 107.16,-261.09"/>
<polygon fill="black" stroke="black" points="110.33,-259.6 102.49,-252.48 104.18,-262.94 110.33,-259.6"/>
</g>
<!-- pc -->
<g id="node22" class="node">
<title>pc</title>
<ellipse fill="none" stroke="black" cx="1085" cy="-18" rx="27" ry="18"/>
<text text-anchor="middle" x="1085" y="-13.8" font-family="Times,serif" font-size="14.00">pc</text>
</g>
<!-- pc&#45;&gt;gr -->
<g id="edge19" class="edge">
<title>pc&#45;&gt;gr</title>
<path fill="none" stroke="black" d="M1066.01,-31.37C1034.78,-53.38 976,-102.57 976,-161 976,-667 976,-667 976,-667 976,-707.45 965.93,-727.88 995,-756 1031.25,-791.07 1181.44,-803.4 1252.89,-807.33"/>
<polygon fill="black" stroke="black" points="1252.38,-810.81 1262.55,-807.83 1252.74,-803.82 1252.38,-810.81"/>
</g>
<!-- gp&#45;&gt;st -->
<g id="edge43" class="edge">
<title>gp&#45;&gt;st</title>
<path fill="none" stroke="black" d="M699.95,-683.71C707.66,-701.82 720.76,-731.44 734,-756 738.95,-765.19 744.85,-774.97 750.28,-783.59"/>
<polygon fill="black" stroke="black" points="747.2,-785.27 755.54,-791.8 753.09,-781.49 747.2,-785.27"/>
</g>
<!-- gp&#45;&gt;hz -->
<g id="edge44" class="edge">
<title>gp&#45;&gt;hz</title>
<path fill="none" stroke="black" d="M701.81,-648.76C706.27,-640.55 711.8,-630.37 716.84,-621.09"/>
<polygon fill="black" stroke="black" points="719.82,-622.94 721.51,-612.48 713.67,-619.6 719.82,-622.94"/>
</g>
<!-- kj&#45;&gt;lg -->
<g id="edge88" class="edge">
<title>kj&#45;&gt;lg</title>
<path fill="none" stroke="black" d="M314.05,-683.71C306.34,-701.82 293.24,-731.44 280,-756 275.05,-765.19 269.15,-774.97 263.72,-783.59"/>
<polygon fill="black" stroke="black" points="260.91,-781.49 258.46,-791.8 266.8,-785.27 260.91,-781.49"/>
</g>
<!-- kj&#45;&gt;bz -->
<g id="edge89" class="edge">
<title>kj&#45;&gt;bz</title>
<path fill="none" stroke="black" d="M312.19,-648.76C307.73,-640.55 302.2,-630.37 297.16,-621.09"/>
<polygon fill="black" stroke="black" points="300.33,-619.6 292.49,-612.48 294.18,-622.94 300.33,-619.6"/>
</g>
<!-- nn -->
<g id="node26" class="node">
<title>nn</title>
<ellipse fill="none" stroke="black" cx="1889" cy="-306" rx="27" ry="18"/>
<text text-anchor="middle" x="1889" y="-301.8" font-family="Times,serif" font-size="14.00">nn</text>
</g>
<!-- tl&#45;&gt;nn -->
<g id="edge22" class="edge">
<title>tl&#45;&gt;nn</title>
<path fill="none" stroke="black" d="M1828.38,-362.83C1838.99,-353.06 1853.3,-339.88 1865.35,-328.78"/>
<polygon fill="black" stroke="black" points="1867.55,-331.52 1872.53,-322.17 1862.8,-326.37 1867.55,-331.52"/>
</g>
<!-- nn&#45;&gt;xc -->
<g id="edge28" class="edge">
<title>nn&#45;&gt;xc</title>
<path fill="none" stroke="black" d="M1897.81,-288.76C1902.27,-280.55 1907.8,-270.37 1912.84,-261.09"/>
<polygon fill="black" stroke="black" points="1915.82,-262.94 1917.51,-252.48 1909.67,-259.6 1915.82,-262.94"/>
</g>
<!-- nn&#45;&gt;bn -->
<g id="edge27" class="edge">
<title>nn&#45;&gt;bn</title>
<path fill="none" stroke="black" d="M1892.36,-323.97C1897.31,-350.52 1906,-403.56 1906,-449 1906,-667 1906,-667 1906,-667 1906,-717.05 1864.73,-762.81 1836.59,-788.2"/>
<polygon fill="black" stroke="black" points="1834.36,-785.5 1829.12,-794.71 1838.96,-790.77 1834.36,-785.5"/>
</g>
<!-- kk&#45;&gt;xs -->
<g id="edge23" class="edge">
<title>kk&#45;&gt;xs</title>
<path fill="none" stroke="black" d="M694,-359.7C694,-352.41 694,-343.73 694,-335.54"/>
<polygon fill="black" stroke="black" points="697.5,-335.62 694,-325.62 690.5,-335.62 697.5,-335.62"/>
</g>
<!-- gq&#45;&gt;pd -->
<g id="edge24" class="edge">
<title>gq&#45;&gt;pd</title>
<path fill="none" stroke="black" d="M160.19,-360.76C155.73,-352.55 150.2,-342.37 145.16,-333.09"/>
<polygon fill="black" stroke="black" points="148.33,-331.6 140.49,-324.48 142.18,-334.94 148.33,-331.6"/>
</g>
<!-- xq&#45;&gt;st -->
<g id="edge25" class="edge">
<title>xq&#45;&gt;st</title>
<path fill="none" stroke="black" d="M603.53,-170.06C555.17,-185.69 452,-228.05 452,-305 452,-667 452,-667 452,-667 452,-707.45 441.93,-727.88 471,-756 507.25,-791.07 657.44,-803.4 728.89,-807.33"/>
<polygon fill="black" stroke="black" points="728.38,-810.81 738.55,-807.83 728.74,-803.82 728.38,-810.81"/>
</g>
<!-- xj -->
<g id="node30" class="node">
<title>xj</title>
<ellipse fill="none" stroke="black" cx="883" cy="-90" rx="27" ry="18"/>
<text text-anchor="middle" x="883" y="-85.8" font-family="Times,serif" font-size="14.00">xj</text>
</g>
<!-- xq&#45;&gt;xj -->
<g id="edge26" class="edge">
<title>xq&#45;&gt;xj</title>
<path fill="none" stroke="black" d="M652.45,-154.29C697.74,-141.85 794.86,-115.2 847.43,-100.76"/>
<polygon fill="black" stroke="black" points="848.07,-104.22 856.79,-98.2 846.22,-97.47 848.07,-104.22"/>
</g>
<!-- xj&#45;&gt;st -->
<g id="edge35" class="edge">
<title>xj&#45;&gt;st</title>
<path fill="none" stroke="black" d="M886.36,-107.97C891.31,-134.52 900,-187.56 900,-233 900,-667 900,-667 900,-667 900,-726.22 837.61,-770.93 798.3,-793.23"/>
<polygon fill="black" stroke="black" points="796.79,-790.06 789.7,-797.94 800.15,-796.2 796.79,-790.06"/>
</g>
<!-- vq -->
<g id="node35" class="node">
<title>vq</title>
<ellipse fill="none" stroke="black" cx="911" cy="-18" rx="27" ry="18"/>
<text text-anchor="middle" x="911" y="-13.8" font-family="Times,serif" font-size="14.00">vq</text>
</g>
<!-- xj&#45;&gt;vq -->
<g id="edge36" class="edge">
<title>xj&#45;&gt;vq</title>
<path fill="none" stroke="black" d="M889.64,-72.41C892.77,-64.57 896.6,-54.99 900.15,-46.13"/>
<polygon fill="black" stroke="black" points="903.39,-47.46 903.85,-36.88 896.89,-44.86 903.39,-47.46"/>
</g>
<!-- nl -->
<g id="node50" class="node">
<title>nl</title>
<ellipse fill="none" stroke="black" cx="750" cy="-522" rx="27" ry="18"/>
<text text-anchor="middle" x="750" y="-517.8" font-family="Times,serif" font-size="14.00">nl</text>
</g>
<!-- hz&#45;&gt;nl -->
<g id="edge67" class="edge">
<title>hz&#45;&gt;nl</title>
<path fill="none" stroke="black" d="M735.6,-576.05C737.65,-568.49 740.13,-559.37 742.44,-550.85"/>
<polygon fill="black" stroke="black" points="745.8,-551.82 745.05,-541.25 739.05,-549.98 745.8,-551.82"/>
</g>
<!-- hb -->
<g id="node33" class="node">
<title>hb</title>
<ellipse fill="none" stroke="black" cx="1067" cy="-666" rx="27" ry="18"/>
<text text-anchor="middle" x="1067" y="-661.8" font-family="Times,serif" font-size="14.00">hb</text>
</g>
<!-- zb&#45;&gt;hb -->
<g id="edge73" class="edge">
<title>zb&#45;&gt;hb</title>
<path fill="none" stroke="black" d="M1039.35,-720.76C1043.58,-712.55 1048.81,-702.37 1053.58,-693.09"/>
<polygon fill="black" stroke="black" points="1056.54,-694.99 1058,-684.49 1050.32,-691.79 1056.54,-694.99"/>
</g>
<!-- rx -->
<g id="node34" class="node">
<title>rx</title>
<ellipse fill="none" stroke="black" cx="1067" cy="-594" rx="27" ry="18"/>
<text text-anchor="middle" x="1067" y="-589.8" font-family="Times,serif" font-size="14.00">rx</text>
</g>
<!-- hb&#45;&gt;rx -->
<g id="edge34" class="edge">
<title>hb&#45;&gt;rx</title>
<path fill="none" stroke="black" d="M1067,-647.7C1067,-640.41 1067,-631.73 1067,-623.54"/>
<polygon fill="black" stroke="black" points="1070.5,-623.62 1067,-613.62 1063.5,-623.62 1070.5,-623.62"/>
</g>
<!-- vq&#45;&gt;st -->
<g id="edge40" class="edge">
<title>vq&#45;&gt;st</title>
<path fill="none" stroke="black" d="M916.33,-35.85C924.2,-62.25 938,-115.08 938,-161 938,-667 938,-667 938,-667 938,-737.14 851.8,-779.26 801.81,-797.79"/>
<polygon fill="black" stroke="black" points="800.81,-794.43 792.56,-801.09 803.16,-801.03 800.81,-794.43"/>
</g>
<!-- sz -->
<g id="node36" class="node">
<title>sz</title>
<ellipse fill="none" stroke="black" cx="1365" cy="-522" rx="27" ry="18"/>
<text text-anchor="middle" x="1365" y="-517.8" font-family="Times,serif" font-size="14.00">sz</text>
</g>
<!-- sz&#45;&gt;ph -->
<g id="edge38" class="edge">
<title>sz&#45;&gt;ph</title>
<path fill="none" stroke="black" d="M1356.19,-504.76C1351.73,-496.55 1346.2,-486.37 1341.16,-477.09"/>
<polygon fill="black" stroke="black" points="1344.33,-475.6 1336.49,-468.48 1338.18,-478.94 1344.33,-475.6"/>
</g>
<!-- sz&#45;&gt;gr -->
<g id="edge37" class="edge">
<title>sz&#45;&gt;gr</title>
<path fill="none" stroke="black" d="M1364.21,-540.26C1361.91,-579.73 1353.44,-679.09 1324,-756 1320.27,-765.75 1314.67,-775.67 1309.15,-784.24"/>
<polygon fill="black" stroke="black" points="1306.36,-782.11 1303.65,-792.35 1312.16,-786.04 1306.36,-782.11"/>
</g>
<!-- kx -->
<g id="node38" class="node">
<title>kx</title>
<ellipse fill="none" stroke="black" cx="245" cy="-522" rx="27" ry="18"/>
<text text-anchor="middle" x="245" y="-517.8" font-family="Times,serif" font-size="14.00">kx</text>
</g>
<!-- bz&#45;&gt;kx -->
<g id="edge39" class="edge">
<title>bz&#45;&gt;kx</title>
<path fill="none" stroke="black" d="M274.19,-576.76C269.73,-568.55 264.2,-558.37 259.16,-549.09"/>
<polygon fill="black" stroke="black" points="262.33,-547.6 254.49,-540.48 256.18,-550.94 262.33,-547.6"/>
</g>
<!-- kx&#45;&gt;lg -->
<g id="edge52" class="edge">
<title>kx&#45;&gt;lg</title>
<path fill="none" stroke="black" d="M245.12,-540.23C245.45,-587.74 246.38,-720.97 246.8,-780.1"/>
<polygon fill="black" stroke="black" points="243.3,-780.05 246.87,-790.03 250.3,-780 243.3,-780.05"/>
</g>
<!-- kx&#45;&gt;kc -->
<g id="edge51" class="edge">
<title>kx&#45;&gt;kc</title>
<path fill="none" stroke="black" d="M236.19,-504.76C231.73,-496.55 226.2,-486.37 221.16,-477.09"/>
<polygon fill="black" stroke="black" points="224.33,-475.6 216.49,-468.48 218.18,-478.94 224.33,-475.6"/>
</g>
<!-- hh&#45;&gt;bn -->
<g id="edge91" class="edge">
<title>hh&#45;&gt;bn</title>
<path fill="none" stroke="black" d="M2006.36,-107.97C2011.31,-134.52 2020,-187.56 2020,-233 2020,-667 2020,-667 2020,-667 2020,-749.22 1907.98,-787.16 1847.96,-801.59"/>
<polygon fill="black" stroke="black" points="1847.49,-798.11 1838.52,-803.75 1849.05,-804.93 1847.49,-798.11"/>
</g>
<!-- jv -->
<g id="node58" class="node">
<title>jv</title>
<ellipse fill="none" stroke="black" cx="2030" cy="-18" rx="27" ry="18"/>
<text text-anchor="middle" x="2030" y="-13.8" font-family="Times,serif" font-size="14.00">jv</text>
</g>
<!-- hh&#45;&gt;jv -->
<g id="edge90" class="edge">
<title>hh&#45;&gt;jv</title>
<path fill="none" stroke="black" d="M2009.54,-72.05C2012.52,-64.32 2016.13,-54.96 2019.48,-46.27"/>
<polygon fill="black" stroke="black" points="2022.65,-47.79 2022.98,-37.2 2016.12,-45.27 2022.65,-47.79"/>
</g>
<!-- js&#45;&gt;hb -->
<g id="edge45" class="edge">
<title>js&#45;&gt;hb</title>
<path fill="none" stroke="black" d="M1094.65,-720.76C1090.42,-712.55 1085.19,-702.37 1080.42,-693.09"/>
<polygon fill="black" stroke="black" points="1083.68,-691.79 1076,-684.49 1077.46,-694.99 1083.68,-691.79"/>
</g>
<!-- qg&#45;&gt;hq -->
<g id="edge62" class="edge">
<title>qg&#45;&gt;hq</title>
<path fill="none" stroke="black" d="M1745.81,-720.76C1750.27,-712.55 1755.8,-702.37 1760.84,-693.09"/>
<polygon fill="black" stroke="black" points="1763.82,-694.94 1765.51,-684.48 1757.67,-691.6 1763.82,-694.94"/>
</g>
<!-- vr&#45;&gt;gr -->
<g id="edge50" class="edge">
<title>vr&#45;&gt;gr</title>
<path fill="none" stroke="black" d="M1247.64,-323.97C1242.69,-350.52 1234,-403.56 1234,-449 1234,-667 1234,-667 1234,-667 1234,-710.34 1257.15,-756.12 1273.95,-783.62"/>
<polygon fill="black" stroke="black" points="1270.9,-785.35 1279.2,-791.94 1276.82,-781.62 1270.9,-785.35"/>
</g>
<!-- vr&#45;&gt;qc -->
<g id="edge49" class="edge">
<title>vr&#45;&gt;qc</title>
<path fill="none" stroke="black" d="M1242.19,-288.76C1237.73,-280.55 1232.2,-270.37 1227.16,-261.09"/>
<polygon fill="black" stroke="black" points="1230.33,-259.6 1222.49,-252.48 1224.18,-262.94 1230.33,-259.6"/>
</g>
<!-- kt -->
<g id="node52" class="node">
<title>kt</title>
<ellipse fill="none" stroke="black" cx="1186" cy="-162" rx="27" ry="18"/>
<text text-anchor="middle" x="1186" y="-157.8" font-family="Times,serif" font-size="14.00">kt</text>
</g>
<!-- qc&#45;&gt;kt -->
<g id="edge75" class="edge">
<title>qc&#45;&gt;kt</title>
<path fill="none" stroke="black" d="M1206.46,-216.05C1203.48,-208.32 1199.87,-198.96 1196.52,-190.27"/>
<polygon fill="black" stroke="black" points="1199.88,-189.27 1193.02,-181.2 1193.35,-191.79 1199.88,-189.27"/>
</g>
<!-- kc&#45;&gt;gq -->
<g id="edge74" class="edge">
<title>kc&#45;&gt;gq</title>
<path fill="none" stroke="black" d="M198.19,-432.76C193.73,-424.55 188.2,-414.37 183.16,-405.09"/>
<polygon fill="black" stroke="black" points="186.33,-403.6 178.49,-396.48 180.18,-406.94 186.33,-403.6"/>
</g>
<!-- jr -->
<g id="node45" class="node">
<title>jr</title>
<ellipse fill="none" stroke="black" cx="1813" cy="-450" rx="27" ry="18"/>
<text text-anchor="middle" x="1813" y="-445.8" font-family="Times,serif" font-size="14.00">jr</text>
</g>
<!-- jr&#45;&gt;bn -->
<g id="edge53" class="edge">
<title>jr&#45;&gt;bn</title>
<path fill="none" stroke="black" d="M1823.6,-466.84C1839.59,-492.28 1868,-544.36 1868,-593 1868,-667 1868,-667 1868,-667 1868,-710.34 1844.85,-756.12 1828.05,-783.62"/>
<polygon fill="black" stroke="black" points="1825.18,-781.62 1822.8,-791.94 1831.1,-785.35 1825.18,-781.62"/>
</g>
<!-- jr&#45;&gt;tl -->
<g id="edge54" class="edge">
<title>jr&#45;&gt;tl</title>
<path fill="none" stroke="black" d="M1813,-431.7C1813,-424.41 1813,-415.73 1813,-407.54"/>
<polygon fill="black" stroke="black" points="1816.5,-407.62 1813,-397.62 1809.5,-407.62 1816.5,-407.62"/>
</g>
<!-- cz&#45;&gt;dh -->
<g id="edge83" class="edge">
<title>cz&#45;&gt;dh</title>
<path fill="none" stroke="black" d="M1470.19,-720.76C1465.73,-712.55 1460.2,-702.37 1455.16,-693.09"/>
<polygon fill="black" stroke="black" points="1458.33,-691.6 1450.49,-684.48 1452.18,-694.94 1458.33,-691.6"/>
</g>
<!-- dh&#45;&gt;nj -->
<g id="edge93" class="edge">
<title>dh&#45;&gt;nj</title>
<path fill="none" stroke="black" d="M1432.19,-648.76C1427.73,-640.55 1422.2,-630.37 1417.16,-621.09"/>
<polygon fill="black" stroke="black" points="1420.33,-619.6 1412.49,-612.48 1414.18,-622.94 1420.33,-619.6"/>
</g>
<!-- nj&#45;&gt;sz -->
<g id="edge87" class="edge">
<title>nj&#45;&gt;sz</title>
<path fill="none" stroke="black" d="M1394.19,-576.76C1389.73,-568.55 1384.2,-558.37 1379.16,-549.09"/>
<polygon fill="black" stroke="black" points="1382.33,-547.6 1374.49,-540.48 1376.18,-550.94 1382.33,-547.6"/>
</g>
<!-- hq&#45;&gt;vj -->
<g id="edge92" class="edge">
<title>hq&#45;&gt;vj</title>
<path fill="none" stroke="black" d="M1779.6,-648.05C1781.65,-640.49 1784.13,-631.37 1786.44,-622.85"/>
<polygon fill="black" stroke="black" points="1789.8,-623.82 1789.05,-613.25 1783.05,-621.98 1789.8,-623.82"/>
</g>
<!-- nl&#45;&gt;st -->
<g id="edge65" class="edge">
<title>nl&#45;&gt;st</title>
<path fill="none" stroke="black" d="M756.83,-539.87C760.62,-550.13 764.97,-563.6 767,-576 778.91,-648.8 773.85,-736.11 769.96,-780.32"/>
<polygon fill="black" stroke="black" points="766.49,-779.81 769.04,-790.09 773.46,-780.46 766.49,-779.81"/>
</g>
<!-- ch -->
<g id="node51" class="node">
<title>ch</title>
<ellipse fill="none" stroke="black" cx="750" cy="-450" rx="27" ry="18"/>
<text text-anchor="middle" x="750" y="-445.8" font-family="Times,serif" font-size="14.00">ch</text>
</g>
<!-- nl&#45;&gt;ch -->
<g id="edge66" class="edge">
<title>nl&#45;&gt;ch</title>
<path fill="none" stroke="black" d="M750,-503.7C750,-496.41 750,-487.73 750,-479.54"/>
<polygon fill="black" stroke="black" points="753.5,-479.62 750,-469.62 746.5,-479.62 753.5,-479.62"/>
</g>
<!-- ch&#45;&gt;st -->
<g id="edge94" class="edge">
<title>ch&#45;&gt;st</title>
<path fill="none" stroke="black" d="M763.92,-465.84C785.35,-490.32 824,-541.57 824,-593 824,-667 824,-667 824,-667 824,-710.34 800.85,-756.12 784.05,-783.62"/>
<polygon fill="black" stroke="black" points="781.18,-781.62 778.8,-791.94 787.1,-785.35 781.18,-781.62"/>
</g>
<!-- ch&#45;&gt;kk -->
<g id="edge95" class="edge">
<title>ch&#45;&gt;kk</title>
<path fill="none" stroke="black" d="M737.85,-433.81C730.66,-424.82 721.39,-413.23 713.22,-403.03"/>
<polygon fill="black" stroke="black" points="716.05,-400.96 707.07,-395.34 710.59,-405.34 716.05,-400.96"/>
</g>
<!-- kt&#45;&gt;gr -->
<g id="edge68" class="edge">
<title>kt&#45;&gt;gr</title>
<path fill="none" stroke="black" d="M1180.47,-179.84C1172.31,-206.21 1158,-259.02 1158,-305 1158,-667 1158,-667 1158,-667 1158,-726.22 1220.39,-770.93 1259.7,-793.23"/>
<polygon fill="black" stroke="black" points="1257.85,-796.2 1268.3,-797.94 1261.21,-790.06 1257.85,-796.2"/>
</g>
<!-- jc -->
<g id="node53" class="node">
<title>jc</title>
<ellipse fill="none" stroke="black" cx="1186" cy="-90" rx="27" ry="18"/>
<text text-anchor="middle" x="1186" y="-85.8" font-family="Times,serif" font-size="14.00">jc</text>
</g>
<!-- kt&#45;&gt;jc -->
<g id="edge69" class="edge">
<title>kt&#45;&gt;jc</title>
<path fill="none" stroke="black" d="M1186,-143.7C1186,-136.41 1186,-127.73 1186,-119.54"/>
<polygon fill="black" stroke="black" points="1189.5,-119.62 1186,-109.62 1182.5,-119.62 1189.5,-119.62"/>
</g>
<!-- jc&#45;&gt;gr -->
<g id="edge85" class="edge">
<title>jc&#45;&gt;gr</title>
<path fill="none" stroke="black" d="M1212.59,-94.11C1304.92,-105.63 1606,-149.58 1606,-233 1606,-667 1606,-667 1606,-667 1606,-707.45 1616.07,-727.88 1587,-756 1550.75,-791.07 1400.56,-803.4 1329.11,-807.33"/>
<polygon fill="black" stroke="black" points="1329.26,-803.82 1319.45,-807.83 1329.62,-810.81 1329.26,-803.82"/>
</g>
<!-- jc&#45;&gt;pc -->
<g id="edge86" class="edge">
<title>jc&#45;&gt;pc</title>
<path fill="none" stroke="black" d="M1167.94,-76.49C1152.53,-65.8 1130.12,-50.27 1112.48,-38.04"/>
<polygon fill="black" stroke="black" points="1114.7,-35.32 1104.48,-32.5 1110.71,-41.08 1114.7,-35.32"/>
</g>
<!-- qn&#45;&gt;hm -->
<g id="edge100" class="edge">
<title>qn&#45;&gt;hm</title>
<path fill="none" stroke="black" d="M96.39,-79.27C123.9,-67.3 170.81,-46.91 202.35,-33.2"/>
<polygon fill="black" stroke="black" points="203.64,-36.45 211.42,-29.25 200.85,-30.03 203.64,-36.45"/>
</g>
<!-- qn&#45;&gt;lg -->
<g id="edge101" class="edge">
<title>qn&#45;&gt;lg</title>
<path fill="none" stroke="black" d="M60.08,-105.84C38.65,-130.32 0,-181.57 0,-233 0,-667 0,-667 0,-667 0,-711.94 12.72,-728.15 48,-756 94.81,-792.95 165.12,-804.25 208.42,-807.64"/>
<polygon fill="black" stroke="black" points="208.15,-811.13 218.36,-808.3 208.62,-804.14 208.15,-811.13"/>
</g>
<!-- vj&#45;&gt;rs -->
<g id="edge72" class="edge">
<title>vj&#45;&gt;rs</title>
<path fill="none" stroke="black" d="M1794,-575.7C1794,-568.41 1794,-559.73 1794,-551.54"/>
<polygon fill="black" stroke="black" points="1797.5,-551.62 1794,-541.62 1790.5,-551.62 1797.5,-551.62"/>
</g>
<!-- rs&#45;&gt;jr -->
<g id="edge97" class="edge">
<title>rs&#45;&gt;jr</title>
<path fill="none" stroke="black" d="M1798.6,-504.05C1800.65,-496.49 1803.13,-487.37 1805.44,-478.85"/>
<polygon fill="black" stroke="black" points="1808.8,-479.82 1808.05,-469.25 1802.05,-477.98 1808.8,-479.82"/>
</g>
<!-- bs&#45;&gt;hb -->
<g id="edge84" class="edge">
<title>bs&#45;&gt;hb</title>
<path fill="none" stroke="black" d="M1530.51,-725.93C1525.55,-723.65 1520.18,-721.49 1515,-720 1367.85,-677.77 1184.23,-669.13 1105.62,-667.41"/>
<polygon fill="black" stroke="black" points="1105.94,-663.91 1095.88,-667.22 1105.81,-670.91 1105.94,-663.91"/>
</g>
<!-- jv&#45;&gt;bn -->
<g id="edge96" class="edge">
<title>jv&#45;&gt;bn</title>
<path fill="none" stroke="black" d="M2035.53,-35.84C2043.69,-62.21 2058,-115.02 2058,-161 2058,-667 2058,-667 2058,-667 2058,-762.15 1918.52,-794.48 1849.19,-804.68"/>
<polygon fill="black" stroke="black" points="1848.83,-801.19 1839.4,-806.03 1849.79,-808.13 1848.83,-801.19"/>
</g>
<!-- rr&#45;&gt;hb -->
<g id="edge109" class="edge">
<title>rr&#45;&gt;hb</title>
<path fill="none" stroke="black" d="M531.86,-730.52C546.15,-726.99 564.49,-722.79 581,-720 746.52,-692.06 946.36,-675.66 1028.7,-669.64"/>
<polygon fill="black" stroke="black" points="1028.75,-673.15 1038.47,-668.94 1028.24,-666.17 1028.75,-673.15"/>
</g>
</g>
</svg>
